HIERARCHY
ROOT Hips
{
	OFFSET 0.000000 121.760803 0.000000
	CHANNELS 6 Xposition Yposition Zposition Xrotation Yrotation Zrotation 
	JOINT Spine
	{
		OFFSET 0.072000 7.257294 -0.789700
		CHANNELS 3 Xrotation Yrotation Zrotation
		JOINT Spine1
		{
			OFFSET 0.000000 12.508769 -0.658067
			CHANNELS 3 Xrotation Yrotation Zrotation
			JOINT Spine1_split
			{
				OFFSET 0.000000 12.508769 -0.658067
				CHANNELS 3 Xrotation Yrotation Zrotation
				JOINT Spine2
				{
					OFFSET 0.000000 12.508769 -0.658067
					CHANNELS 3 Xrotation Yrotation Zrotation
					JOINT Neck
					{
						OFFSET 0.000000 14.033295 7.520400
						CHANNELS 3 Xrotation Yrotation Zrotation
						JOINT Head
						{
							OFFSET 0.000000 8.198502 5.703100
							CHANNELS 3 Xrotation Yrotation Zrotation
							JOINT HeadTop_End
							{
								OFFSET 0.000000 17.760803 13.332701
								CHANNELS 3 Xrotation Yrotation Zrotation
								End Site
								{
									OFFSET 0.000000 0.000000 0.000000
								}
							}
						}
					}
					JOINT LeftShoulder
					{
						OFFSET 6.292450 5.785301 -0.669000
						CHANNELS 3 Xrotation Yrotation Zrotation
						JOINT LeftShoulder_split
						{
							OFFSET 6.292450 5.785301 -0.669000
							CHANNELS 3 Xrotation Yrotation Zrotation
							JOINT LeftArm
							{
								OFFSET 13.907140 -6.093903 1.965100
								CHANNELS 3 Xrotation Yrotation Zrotation
								JOINT LeftForeArm
								{
									OFFSET 34.140198 0.000000 0.000000
									CHANNELS 3 Xrotation Yrotation Zrotation
									JOINT LeftHand
									{
										OFFSET 40.960209 0.000000 0.000000
										CHANNELS 3 Xrotation Yrotation Zrotation
										JOINT LeftHandThumb1
										{
											OFFSET 10.006996 -7.170425 9.573125
											CHANNELS 3 Xrotation Yrotation Zrotation
											JOINT LeftHandThumb2
											{
												OFFSET 1.835007 -1.059448 1.059443
												CHANNELS 3 Xrotation Yrotation Zrotation
												JOINT LeftHandThumb3
												{
													OFFSET 2.112267 -1.219513 1.219518
													CHANNELS 3 Xrotation Yrotation Zrotation
													JOINT LeftHandThumb4
													{
														OFFSET 4.843811 -2.796570 2.796576
														CHANNELS 3 Xrotation Yrotation Zrotation
														End Site
														{
															OFFSET 0.000000 0.000000 0.000000
														}
													}
												}
											}
										}
										JOINT LeftHandIndex1
										{
											OFFSET 18.389847 -0.922348 4.596882
											CHANNELS 3 Xrotation Yrotation Zrotation
											JOINT LeftHandIndex2
											{
												OFFSET 4.711273 0.000000 0.000000
												CHANNELS 3 Xrotation Yrotation Zrotation
												JOINT LeftHandIndex3
												{
													OFFSET 2.886131 0.000000 0.000000
													CHANNELS 3 Xrotation Yrotation Zrotation
													JOINT LeftHandIndex4
													{
														OFFSET 6.145912 0.000000 0.000000
														CHANNELS 3 Xrotation Yrotation Zrotation
														End Site
														{
															OFFSET 0.000000 0.000000 0.000000
														}
													}
												}
											}
										}
										JOINT LeftHandMiddle1
										{
											OFFSET 18.013008 0.000000 0.000000
											CHANNELS 3 Xrotation Yrotation Zrotation
											JOINT LeftHandMiddle2
											{
												OFFSET 4.946693 0.000000 0.000000
												CHANNELS 3 Xrotation Yrotation Zrotation
												JOINT LeftHandMiddle3
												{
													OFFSET 3.342232 0.000000 0.000000
													CHANNELS 3 Xrotation Yrotation Zrotation
													JOINT LeftHandMiddle4
													{
														OFFSET 4.461754 0.000000 0.000000
														CHANNELS 3 Xrotation Yrotation Zrotation
														End Site
														{
															OFFSET 0.000000 0.000000 0.000000
														}
													}
												}
											}
										}
										JOINT LeftHandRing1
										{
											OFFSET 15.849892 -0.102921 -4.126150
											CHANNELS 3 Xrotation Yrotation Zrotation
											JOINT LeftHandRing2
											{
												OFFSET 3.527054 0.000000 0.000000
												CHANNELS 3 Xrotation Yrotation Zrotation
												JOINT LeftHandRing3
												{
													OFFSET 2.961098 0.000000 0.000000
													CHANNELS 3 Xrotation Yrotation Zrotation
													JOINT LeftHandRing4
													{
														OFFSET 4.927200 0.000000 0.000000
														CHANNELS 3 Xrotation Yrotation Zrotation
														End Site
														{
															OFFSET 0.000000 0.000000 0.000000
														}
													}
												}
											}
										}
										JOINT LeftHandPinky1
										{
											OFFSET 12.791824 -0.832031 -6.799156
											CHANNELS 3 Xrotation Yrotation Zrotation
											JOINT LeftHandPinky2
											{
												OFFSET 3.327133 0.000000 0.000000
												CHANNELS 3 Xrotation Yrotation Zrotation
												JOINT LeftHandPinky3
												{
													OFFSET 3.014900 0.000000 0.000000
													CHANNELS 3 Xrotation Yrotation Zrotation
													JOINT LeftHandPinky4
													{
														OFFSET 5.847786 0.000000 0.000000
														CHANNELS 3 Xrotation Yrotation Zrotation
														End Site
														{
															OFFSET 0.000000 0.000000 0.000000
														}
													}
												}
											}
										}
									}
								}
							}
						}
					}
					JOINT RightShoulder
					{
						OFFSET -6.292450 5.785301 -0.669000
						CHANNELS 3 Xrotation Yrotation Zrotation
						JOINT RightShoulder_split
						{
							OFFSET -6.292450 5.785301 -0.669000
							CHANNELS 3 Xrotation Yrotation Zrotation
							JOINT RightArm
							{
								OFFSET -13.907140 -6.093903 1.965100
								CHANNELS 3 Xrotation Yrotation Zrotation
								JOINT RightForeArm
								{
									OFFSET -34.140198 0.000000 0.000000
									CHANNELS 3 Xrotation Yrotation Zrotation
									JOINT RightHand
									{
										OFFSET -40.960209 0.000000 0.000000
										CHANNELS 3 Xrotation Yrotation Zrotation
										JOINT RightHandThumb1
										{
											OFFSET -10.007050 -7.170456 9.573117
											CHANNELS 3 Xrotation Yrotation Zrotation
											JOINT RightHandThumb2
											{
												OFFSET -1.835007 -1.059448 1.059443
												CHANNELS 3 Xrotation Yrotation Zrotation
												JOINT RightHandThumb3
												{
													OFFSET -2.112267 -1.219513 1.219518
													CHANNELS 3 Xrotation Yrotation Zrotation
													JOINT RightHandThumb4
													{
														OFFSET -4.843834 -2.796585 2.796590
														CHANNELS 3 Xrotation Yrotation Zrotation
														End Site
														{
															OFFSET 0.000000 0.000000 0.000000
														}
													}
												}
											}
										}
										JOINT RightHandIndex1
										{
											OFFSET -18.389870 -0.922424 4.596786
											CHANNELS 3 Xrotation Yrotation Zrotation
											JOINT RightHandIndex2
											{
												OFFSET -4.711273 0.000000 0.000000
												CHANNELS 3 Xrotation Yrotation Zrotation
												JOINT RightHandIndex3
												{
													OFFSET -2.886131 0.000000 0.000000
													CHANNELS 3 Xrotation Yrotation Zrotation
													JOINT RightHandIndex4
													{
														OFFSET -6.145920 0.000000 0.000000
														CHANNELS 3 Xrotation Yrotation Zrotation
														End Site
														{
															OFFSET 0.000000 0.000000 0.000000
														}
													}
												}
											}
										}
										JOINT RightHandMiddle1
										{
											OFFSET -18.013008 0.000000 0.000000
											CHANNELS 3 Xrotation Yrotation Zrotation
											JOINT RightHandMiddle2
											{
												OFFSET -4.946693 0.000000 0.000000
												CHANNELS 3 Xrotation Yrotation Zrotation
												JOINT RightHandMiddle3
												{
													OFFSET -3.342232 0.000000 0.000000
													CHANNELS 3 Xrotation Yrotation Zrotation
													JOINT RightHandMiddle4
													{
														OFFSET -4.461754 0.000000 0.000000
														CHANNELS 3 Xrotation Yrotation Zrotation
														End Site
														{
															OFFSET 0.000000 0.000000 0.000000
														}
													}
												}
											}
										}
										JOINT RightHandRing1
										{
											OFFSET -15.849876 -0.102936 -4.126237
											CHANNELS 3 Xrotation Yrotation Zrotation
											JOINT RightHandRing2
											{
												OFFSET -3.527054 0.000000 0.000000
												CHANNELS 3 Xrotation Yrotation Zrotation
												JOINT RightHandRing3
												{
													OFFSET -2.961098 0.000000 0.000000
													CHANNELS 3 Xrotation Yrotation Zrotation
													JOINT RightHandRing4
													{
														OFFSET -4.927200 0.000000 0.000000
														CHANNELS 3 Xrotation Yrotation Zrotation
														End Site
														{
															OFFSET 0.000000 0.000000 0.000000
														}
													}
												}
											}
										}
										JOINT RightHandPinky1
										{
											OFFSET -12.791786 -0.832077 -6.799222
											CHANNELS 3 Xrotation Yrotation Zrotation
											JOINT RightHandPinky2
											{
												OFFSET -3.327133 0.000000 0.000000
												CHANNELS 3 Xrotation Yrotation Zrotation
												JOINT RightHandPinky3
												{
													OFFSET -3.014900 0.000000 0.000000
													CHANNELS 3 Xrotation Yrotation Zrotation
													JOINT RightHandPinky4
													{
														OFFSET -5.847786 0.000000 0.000000
														CHANNELS 3 Xrotation Yrotation Zrotation
														End Site
														{
															OFFSET 0.000000 0.000000 0.000000
														}
													}
												}
											}
										}
									}
								}
							}
						}
					}
				}
			}
		}
	}
	JOINT LeftUpLeg
	{
		OFFSET 13.026900 -6.336304 -1.092800
		CHANNELS 3 Xrotation Yrotation Zrotation
		JOINT LeftLeg
		{
			OFFSET 0.524474 -46.096886 9.782700
			CHANNELS 3 Xrotation Yrotation Zrotation
			JOINT LeftFoot
			{
				OFFSET -0.524474 -53.427422 -12.948200
				CHANNELS 3 Xrotation Yrotation Zrotation
				JOINT LeftToeBase
				{
					OFFSET 0.192200 -14.009700 16.364100
					CHANNELS 3 Xrotation Yrotation Zrotation
					JOINT LeftToe_End
					{
						OFFSET -1.784700 -0.561700 9.474800
						CHANNELS 3 Xrotation Yrotation Zrotation
						End Site
						{
							OFFSET 0.000000 0.000000 0.000000
						}
					}
				}
			}
		}
	}
	JOINT RightUpLeg
	{
		OFFSET -12.883000 -6.336304 -1.092800
		CHANNELS 3 Xrotation Yrotation Zrotation
		JOINT RightLeg
		{
			OFFSET -0.524587 -46.096825 9.782800
			CHANNELS 3 Xrotation Yrotation Zrotation
			JOINT RightFoot
			{
				OFFSET 0.524587 -53.427383 -12.948300
				CHANNELS 3 Xrotation Yrotation Zrotation
				JOINT RightToeBase
				{
					OFFSET -0.192200 -14.009700 16.364100
					CHANNELS 3 Xrotation Yrotation Zrotation
					JOINT RightToe_End
					{
						OFFSET 1.784700 -0.561700 9.474800
						CHANNELS 3 Xrotation Yrotation Zrotation
						End Site
						{
							OFFSET 0.000000 0.000000 0.000000
						}
					}
				}
			}
		}
	}
}
MOTION
Frames: 4
Frame Time: 0.016667
-2.529093 110.797989 -2.780662 -6.260291 -26.365959 2.094316 5.539797 -2.716791 -2.879246 1.469060 -2.839395 -0.460260 0.000000 0.000000 0.000000 1.463317 -2.694934 0.220314 2.455877 4.751708 1.127231 -0.495924 -18.984320 -3.620253 0.000000 0.000000 -0.000000 -0.595444 -16.331997 -20.041829 0.000000 0.000000 0.000000 12.420923 10.550280 -35.769728 0.000060 -96.391878 0.000097 -130.486365 -9.490917 13.340971 -12.800126 -17.470140 4.121652 1.000139 0.731313 -1.438305 -7.335815 -0.421707 13.147362 -0.000001 -0.000001 -0.000004 -3.532559 4.254357 -63.954579 3.402088 5.315521 -65.218929 1.034629 3.326116 -34.549825 -0.000000 -0.000001 0.000002 2.434385 7.296034 -69.364061 3.297864 5.266368 -64.088649 0.787089 2.934904 -30.019562 0.000002 -0.000002 -0.000001 4.717025 8.075502 -77.582288 2.056303 4.456882 -49.517649 1.539996 3.959710 -42.490610 0.000000 -0.000001 -0.000003 6.410338 8.363741 -80.414549 1.722715 4.149896 -45.074406 0.636281 2.657143 -26.928209 0.000000 0.000001 -0.000001 0.930387 18.037672 10.376102 0.000000 0.000000 0.000000 6.836823 30.018920 41.382863 -0.000522 94.273488 0.000551 -34.121047 -22.154921 26.634017 20.470547 7.475563 18.843592 4.151704 -12.160914 -33.848013 -6.346082 -41.944055 -36.535454 -0.000001 0.000001 -0.000002 -0.887076 1.427985 12.684524 1.917408 -3.767456 53.934326 3.058004 -4.374573 69.896775 -0.000001 -0.000002 -0.000000 0.770911 -5.199590 54.618830 5.563874 -4.568246 101.238580 4.771474 -4.655773 91.407896 -0.000001 0.000000 0.000001 6.934481 -8.544287 63.908755 2.909287 -4.317405 67.934701 1.862844 -3.727203 53.099448 -0.000001 0.000001 0.000002 8.373411 -8.171756 73.989930 2.173672 -3.940959 57.745384 1.042008 -2.937907 39.049879 -0.000000 0.000001 -0.000004 -17.643207 9.424236 10.862028 30.216036 9.581510 1.614634 3.745449 18.840836 -11.338646 -1.446304 0.042400 -1.679099 0.000000 0.000001 -0.000000 -13.790941 -32.797599 -14.581957 35.256771 6.938198 -6.450513 -20.536386 -19.480365 3.271646 -2.342332 0.000025 0.000003 -0.000000 -0.000002 -0.000000 
-2.923132 110.926643 -2.625108 -6.315253 -27.053638 1.909976 5.573321 -2.604042 -2.777542 1.469656 -2.769744 -0.466833 0.000000 0.000000 0.000000 1.463645 -2.627361 0.198465 2.455875 4.751701 1.127231 -0.517745 -18.807909 -3.545890 -0.000000 0.000000 0.000000 -0.595444 -16.331998 -20.041827 0.000000 0.000000 0.000000 11.979360 10.162498 -35.915406 -0.000510 -96.251156 -0.000498 -130.145157 -9.203696 13.619372 -12.800127 -17.470138 4.121652 1.000139 0.731313 -1.438310 -7.335815 -0.421706 13.147358 0.000000 0.000001 -0.000001 -3.532558 4.254358 -63.954579 3.402088 5.315520 -65.218929 1.034626 3.326116 -34.549822 0.000000 -0.000000 0.000001 2.434383 7.296032 -69.364068 3.297865 5.266368 -64.088649 0.787093 2.934905 -30.019566 0.000002 0.000002 0.000002 4.717027 8.075503 -77.582288 2.056303 4.456883 -49.517649 1.539993 3.959709 -42.490614 -0.000002 0.000000 0.000000 6.410339 8.363743 -80.414549 1.722719 4.149893 -45.074409 0.636278 2.657143 -26.928209 -0.000002 0.000001 0.000000 0.928818 18.095126 10.321579 0.000000 0.000000 0.000000 7.039708 29.557388 41.115027 0.001213 94.754504 -0.001192 -34.318743 -22.151485 26.224424 20.470545 7.475563 18.843592 4.151704 -12.160917 -33.848013 -6.346076 -41.944059 -36.535457 -0.000003 0.000002 -0.000003 -0.887080 1.427982 12.684525 1.917407 -3.767455 53.934322 3.058004 -4.374572 69.896782 -0.000001 0.000001 0.000001 0.770908 -5.199590 54.618830 5.563870 -4.568245 101.238580 4.771476 -4.655772 91.407896 -0.000001 0.000000 0.000000 6.934477 -8.544289 63.908755 2.909286 -4.317408 67.934701 1.862842 -3.727203 53.099444 0.000000 -0.000001 -0.000001 8.373410 -8.171757 73.989937 2.173669 -3.940958 57.745377 1.042006 -2.937908 39.049882 0.000001 0.000000 0.000001 -17.531414 9.350465 11.136050 30.480334 9.348944 1.623162 4.344928 19.564747 -11.207548 -1.752290 0.061997 -2.025413 -0.000000 0.000002 -0.000000 -13.191127 -32.594018 -14.073206 34.864912 6.962224 -6.426075 -20.552292 -19.148539 3.193798 -2.342333 0.000022 0.000003 -0.000000 -0.000002 -0.000000 
-3.302474 111.070274 -2.476058 -6.371708 -27.742056 1.737098 5.603913 -2.480254 -2.689168 1.470253 -2.697863 -0.473616 0.000000 0.000000 0.000000 1.463943 -2.557643 0.176190 2.455875 4.751718 1.127230 -0.552616 -18.607529 -3.469240 0.000000 0.000001 -0.000000 -0.595443 -16.331997 -20.041827 0.000000 0.000000 0.000000 11.555118 9.778325 -36.062272 0.000097 -96.110331 0.000050 -129.807445 -8.910039 13.881090 -12.800125 -17.470133 4.121657 1.000139 0.731316 -1.438306 -7.335815 -0.421706 13.147368 0.000002 0.000001 -0.000000 -3.532558 4.254363 -63.954579 3.402089 5.315514 -65.218929 1.034627 3.326116 -34.549829 -0.000000 0.000001 -0.000001 2.434385 7.296042 -69.364068 3.297860 5.266367 -64.088649 0.787091 2.934903 -30.019562 -0.000003 -0.000002 0.000002 4.717025 8.075504 -77.582288 2.056298 4.456880 -49.517649 1.539997 3.959708 -42.490607 -0.000000 -0.000001 -0.000001 6.410336 8.363743 -80.414556 1.722714 4.149899 -45.074406 0.636281 2.657144 -26.928209 -0.000000 0.000001 -0.000001 0.926478 18.152640 10.275617 0.000000 0.000000 0.000000 7.261007 29.087529 40.849159 0.000202 95.247507 -0.000150 -34.508339 -22.138979 25.801859 20.470547 7.475563 18.843592 4.151704 -12.160916 -33.848010 -6.346082 -41.944059 -36.535461 -0.000001 -0.000001 -0.000002 -0.887079 1.427984 12.684526 1.917408 -3.767457 53.934326 3.058003 -4.374570 69.896775 0.000000 -0.000000 -0.000000 0.770909 -5.199587 54.618830 5.563873 -4.568245 101.238580 4.771475 -4.655770 91.407896 0.000001 0.000000 0.000000 6.934476 -8.544286 63.908755 2.909285 -4.317404 67.934701 1.862844 -3.727201 53.099448 0.000000 -0.000000 0.000002 8.373410 -8.171754 73.989930 2.173670 -3.940959 57.745384 1.042008 -2.937907 39.049882 -0.000001 -0.000001 0.000001 -17.335703 9.295262 11.390438 30.627361 9.211648 1.629230 4.923138 20.198819 -11.154059 -2.028573 0.082776 -2.335576 -0.000000 0.000001 -0.000000 -12.586568 -32.345064 -13.579399 34.437988 6.928456 -6.395646 -20.532659 -18.795373 3.149706 -2.342332 0.000022 0.000004 -0.000000 0.000002 0.000000 
-3.672059 111.218842 -2.329624 -6.429760 -28.430777 1.567978 5.632504 -2.347712 -2.605870 1.470858 -2.625023 -0.480489 0.000000 0.000000 0.000000 1.464209 -2.487013 0.153858 2.455878 4.751696 1.127232 -0.597445 -18.386471 -3.389411 -0.000000 -0.000001 0.000000 -0.595443 -16.331997 -20.041826 0.000000 0.000000 0.000000 11.157882 9.410612 -36.208971 -0.000237 -95.973905 -0.000197 -129.478448 -8.615277 14.116795 -12.800126 -17.470138 4.121655 1.000139 0.731313 -1.438305 -7.335815 -0.421707 13.147361 0.000000 -0.000001 -0.000004 -3.532556 4.254363 -63.954579 3.402091 5.315514 -65.218929 1.034629 3.326116 -34.549829 0.000003 0.000002 -0.000001 2.434387 7.296040 -69.364061 3.297865 5.266373 -64.088642 0.787096 2.934904 -30.019566 -0.000003 0.000001 0.000001 4.717028 8.075509 -77.582288 2.056299 4.456882 -49.517649 1.539994 3.959708 -42.490610 0.000001 0.000002 0.000003 6.410337 8.363743 -80.414549 1.722720 4.149892 -45.074406 0.636279 2.657144 -26.928209 -0.000000 0.000001 0.000001 0.923532 18.206699 10.240317 0.000000 0.000000 0.000000 7.499874 28.626706 40.584643 0.000157 95.740701 -0.000175 -34.687283 -22.112929 25.372696 20.470545 7.475563 18.843589 4.151703 -12.160915 -33.848013 -6.346081 -41.944059 -36.535457 -0.000000 -0.000002 -0.000002 -0.887078 1.427983 12.684523 1.917409 -3.767457 53.934326 3.058004 -4.374573 69.896782 -0.000001 -0.000001 0.000000 0.770911 -5.199590 54.618830 5.563875 -4.568245 101.238580 4.771475 -4.655770 91.407896 0.000001 -0.000000 0.000000 6.934478 -8.544290 63.908748 2.909286 -4.317408 67.934701 1.862841 -3.727201 53.099444 0.000001 -0.000001 -0.000002 8.373412 -8.171756 73.989930 2.173674 -3.940959 57.745384 1.042006 -2.937907 39.049882 -0.000001 0.000002 0.000001 -17.191250 9.263369 11.568536 30.718748 9.165381 1.630754 5.427469 20.522060 -11.090758 -2.287646 0.103772 -2.610491 0.000000 0.000001 0.000000 -11.981326 -32.058493 -13.097725 33.994616 6.845269 -6.360215 -20.492598 -18.423185 3.133256 -2.342332 0.000022 0.000003 -0.000000 -0.000002 0.000000 
